<svg width="60" height="60" viewBox="0 0 60 60" fill="none" xmlns="http://www.w3.org/2000/svg">
<path d="M41.1111 8C38.9549 8 36.8284 8.50829 34.8998 9.48461C32.9713 10.4609 31.2937 11.8785 30 13.625C28.251 11.2638 25.8125 9.51968 23.0301 8.63965C20.2477 7.75962 17.2623 7.7883 14.4968 8.72164C11.7314 9.65497 9.32609 11.4456 7.62164 13.84C5.91719 16.2343 5 19.111 5 22.0624C5 38.9139 28.125 52.2029 29.0972 52.7654C29.3727 52.9221 29.684 53.003 30 52.9997C30.3163 53.0052 30.6281 52.9242 30.9028 52.7654C35.1613 50.2447 39.1556 47.292 42.8241 43.9529C50.9028 36.5936 55 29.2343 55 22.0624C55 18.3328 53.5367 14.756 50.932 12.1188C48.3274 9.48157 44.7947 8 41.1111 8Z" fill="#121212"/>
<path d="M42.6 16C42.9713 16 43.3274 16.1405 43.59 16.3905C43.8525 16.6406 44 16.9797 44 17.3333V26.6667C44 27.0203 43.8525 27.3594 43.59 27.6095C43.3274 27.8595 42.9713 28 42.6 28H39.7986L39.8 38.6667C39.8 39.0203 39.6525 39.3594 39.39 39.6095C39.1274 39.8595 38.7713 40 38.4 40H21.6C21.2287 40 20.8726 39.8595 20.6101 39.6095C20.3475 39.3594 20.2 39.0203 20.2 38.6667L20.1986 27.9987L17.4 28C17.0287 28 16.6726 27.8595 16.4101 27.6095C16.1475 27.3594 16 27.0203 16 26.6667V17.3333C16 16.9797 16.1475 16.6406 16.4101 16.3905C16.6726 16.1405 17.0287 16 17.4 16H25.8C25.8 17.0609 26.2425 18.0783 27.0302 18.8284C27.8178 19.5786 28.8861 20 30 20C31.1139 20 32.1822 19.5786 32.9698 18.8284C33.7575 18.0783 34.2 17.0609 34.2 16H42.6Z" fill="white"/>
</svg>
