<svg width="60" height="60" viewBox="0 0 60 60" fill="none" xmlns="http://www.w3.org/2000/svg">
<path d="M7.07828 36.144C7.15566 36.4361 7.29012 36.71 7.47391 36.9499C7.6577 37.1898 7.88718 37.391 8.14911 37.5417L12.5476 40.0839V45.1477C12.5476 45.7584 12.7902 46.3441 13.2221 46.7759C13.6539 47.2078 14.2397 47.4504 14.8504 47.4504H19.9144L22.4567 51.8486C22.6606 52.1971 22.9517 52.4866 23.3014 52.6884C23.651 52.8903 24.0473 52.9977 24.451 53C24.8517 53 25.2501 52.8941 25.6047 52.6891L29.9986 50.1492L34.397 52.6914C34.9258 52.9964 35.554 53.0791 36.1437 52.9215C36.7334 52.764 37.2365 52.379 37.5427 51.8509L40.0828 47.4527H45.1468C45.7575 47.4527 46.3432 47.2101 46.7751 46.7782C47.207 46.3464 47.4496 45.7607 47.4496 45.15V40.0862L51.8481 37.544C52.1101 37.3926 52.3397 37.1911 52.5237 36.9509C52.7078 36.7107 52.8427 36.4366 52.9207 36.1443C52.9988 35.852 53.0185 35.5471 52.9787 35.2471C52.9388 34.9472 52.8403 34.658 52.6886 34.3962L50.1486 30.0003L52.6909 25.6066C52.9965 25.078 53.0796 24.4497 52.9219 23.8598C52.7643 23.27 52.3789 22.7668 51.8504 22.4611L47.4519 19.9189V14.8528C47.4519 14.2421 47.2093 13.6564 46.7774 13.2246C46.3456 12.7927 45.7598 12.5501 45.1491 12.5501H40.0851L37.545 8.15418C37.2383 7.62667 36.7361 7.24116 36.1472 7.08111C35.8551 7.00193 35.5502 6.98151 35.2502 7.02104C34.9501 7.06057 34.6609 7.15926 34.3993 7.31138L29.9986 9.8513L25.6024 7.30908C25.0738 7.00354 24.4455 6.92044 23.8556 7.07806C23.2657 7.23567 22.7625 7.62109 22.4567 8.14958L19.9144 12.5478H14.8504C14.2397 12.5478 13.6539 12.7904 13.2221 13.2223C12.7902 13.6541 12.5476 14.2398 12.5476 14.8505V19.9143L8.14911 22.4565C7.62075 22.7636 7.23562 23.2675 7.07808 23.8579C6.92053 24.4484 7.00341 25.0772 7.30857 25.6066L9.85092 30.0003L7.30857 34.3939C7.00456 34.9242 6.92182 35.553 7.07828 36.144Z" fill="#333333"/>
<path d="M39 21C39.2652 21 39.5196 21.1054 39.7071 21.2929C39.8946 21.4804 40 21.7348 40 22V29C40 29.2652 39.8946 29.5196 39.7071 29.7071C39.5196 29.8946 39.2652 30 39 30H36.999L37 38C37 38.2652 36.8946 38.5196 36.7071 38.7071C36.5196 38.8946 36.2652 39 36 39H24C23.7348 39 23.4804 38.8946 23.2929 38.7071C23.1054 38.5196 23 38.2652 23 38L22.999 29.999L21 30C20.7348 30 20.4804 29.8946 20.2929 29.7071C20.1054 29.5196 20 29.2652 20 29V22C20 21.7348 20.1054 21.4804 20.2929 21.2929C20.4804 21.1054 20.7348 21 21 21H27C27 21.7956 27.3161 22.5587 27.8787 23.1213C28.4413 23.6839 29.2044 24 30 24C30.7956 24 31.5587 23.6839 32.1213 23.1213C32.6839 22.5587 33 21.7956 33 21H39Z" fill="white"/>
</svg>
