<svg width="60" height="60" viewBox="0 0 60 60" fill="none" xmlns="http://www.w3.org/2000/svg">
<path d="M8 30C8 17.8497 17.8497 8 30 8V8C42.1503 8 52 17.8497 52 30V30C52 42.1503 42.1503 52 30 52H10C8.89543 52 8 51.1046 8 50V30Z" fill="white"/>
<path d="M28.4401 44C27.2858 44 26.3712 43.0256 26.4441 41.8737L26.6459 38.6845C26.7511 37.0218 24.8964 35.9669 23.5211 36.9072L21.001 38.6302C20.0292 39.2946 18.6966 38.9801 18.1244 37.9513L17.0181 35.9624C16.4636 34.9654 16.854 33.7073 17.8754 33.1994L20.7081 31.7908C22.1875 31.0552 22.1875 28.9448 20.7081 28.2092L17.8754 26.8006C16.854 26.2927 16.4636 25.0346 17.0181 24.0376L18.1244 22.0487C18.6966 21.0199 20.0292 20.7054 21.001 21.3698L23.5211 23.0928C24.8964 24.0331 26.7511 22.9782 26.6459 21.3155L26.4441 18.1263C26.3712 16.9744 27.2858 16 28.4401 16H30.5783C31.7346 16 32.6499 16.9776 32.574 18.1313L32.3653 21.3031C32.2557 22.9678 34.1125 24.027 35.4898 23.0854L37.999 21.3698C38.9708 20.7054 40.3034 21.0199 40.8756 22.0487L41.9831 24.0397C42.5371 25.0359 42.1479 26.293 41.1278 26.8017L38.3033 28.2102C36.8267 28.9466 36.8267 31.0534 38.3033 31.7898L41.1278 33.1983C42.1479 33.707 42.5372 34.9641 41.9831 35.9603L40.8756 37.9513C40.3034 38.9801 38.9708 39.2946 37.999 38.6302L35.4898 36.9146C34.1125 35.973 32.2557 37.0322 32.3653 38.6969L32.574 41.8687C32.6499 43.0224 31.7346 44 30.5783 44H28.4401Z" fill="#121212"/>
</svg>
