<svg width="60" height="60" viewBox="0 0 60 60" fill="none" xmlns="http://www.w3.org/2000/svg">
<path d="M22.6111 8C21.6193 8 20.641 8.22591 19.7539 8.65983C18.8668 9.09375 18.0951 9.72376 17.5 10.5C16.6955 9.45058 15.5738 8.67541 14.2938 8.28429C13.0139 7.89317 11.6406 7.90591 10.3685 8.32073C9.09644 8.73554 7.99 9.53139 7.20595 10.5955C6.42191 11.6597 6 12.9382 6 14.25C6 21.7395 16.6375 27.6457 17.0847 27.8957C17.2114 27.9654 17.3546 28.0013 17.5 27.9999C17.6455 28.0023 17.7889 27.9663 17.9153 27.8957C19.8742 26.7754 21.7116 25.4631 23.3991 23.9791C27.1153 20.7083 29 17.4374 29 14.25C29 12.5924 28.3269 11.0027 27.1287 9.83057C25.9306 8.65848 24.3055 8 22.6111 8Z" fill="#121212"/>
<rect x="33" y="8" width="20" height="20" rx="7" fill="#121212"/>
<rect x="7" y="31" width="22" height="22" rx="11" fill="#121212"/>
<path d="M39.5359 34C41.0755 31.3333 44.9245 31.3333 46.4641 34L53.3923 46C54.9319 48.6667 53.0074 52 49.9282 52H36.0718C32.9926 52 31.0681 48.6667 32.6077 46L39.5359 34Z" fill="#121212"/>
</svg>
