<svg width="60" height="60" viewBox="0 0 60 60" fill="none" xmlns="http://www.w3.org/2000/svg">
<path d="M8 30C8 17.8497 17.8497 8 30 8V8C42.1503 8 52 17.8497 52 30V30C52 42.1503 42.1503 52 30 52H10C8.89543 52 8 51.1046 8 50V30Z" fill="#121212"/>
<path d="M28.9621 33.3278C27.955 33.3278 27.1049 32.5789 26.9781 31.5797L25.2859 18.2519C25.1342 17.0569 26.0654 16 27.27 16H31.7507C32.948 16 33.877 17.0448 33.737 18.2338L32.1679 31.5616C32.0494 32.5688 31.1958 33.3278 30.1816 33.3278H28.9621ZM27.4 43C26.2954 43 25.4 42.1046 25.4 41V37.8299C25.4 36.7253 26.2954 35.8299 27.4 35.8299H31.6C32.7046 35.8299 33.6 36.7253 33.6 37.8299V41C33.6 42.1046 32.7046 43 31.6 43H27.4Z" fill="white"/>
</svg>
