<svg width="40" height="40" viewBox="0 0 40 40" fill="none" xmlns="http://www.w3.org/2000/svg">
<g clip-path="url(#clip0_26_716)">
<path d="M30 19.1992L29.002 19.2021C27.6377 19.2053 26.2958 18.9187 25.0654 18.3721V23.6514L25.0605 23.9326C25.005 25.3371 24.5371 26.6971 23.7139 27.8506C22.8361 29.0803 21.5967 30.016 20.1641 30.5371C18.7314 31.0582 17.1702 31.1415 15.6885 30.7764C14.2066 30.4112 12.8701 29.6139 11.8604 28.4863C10.8504 27.3585 10.2159 25.954 10.0459 24.46C9.87596 22.9658 10.1801 21.4582 10.9141 20.1396C11.6479 18.8215 12.7753 17.7572 14.1416 17.085C15.5077 16.4129 17.0501 16.1623 18.5635 16.3662L19.4297 16.4834V22.2217L18.1377 21.8262C17.7309 21.7018 17.293 21.7056 16.8887 21.8369C16.4846 21.9682 16.1384 22.2184 15.8965 22.5469C15.655 22.8749 15.5289 23.2653 15.5312 23.6621C15.5337 24.0589 15.6646 24.448 15.9102 24.7734C16.1561 25.0993 16.5054 25.346 16.9111 25.4727C17.3172 25.5994 17.755 25.5978 18.1602 25.4688C18.5649 25.3398 18.9123 25.0917 19.1562 24.7646C19.3998 24.4379 19.5293 24.0481 19.5293 23.6514V9H25.0742L25.0654 10.0088C25.0636 10.2326 25.0824 10.4562 25.1221 10.6768H25.123C25.2195 11.1777 25.4196 11.6563 25.7139 12.082C25.9715 12.4547 26.2968 12.7804 26.6738 13.0439L26.8379 13.1533L26.8477 13.1592L27.0918 13.3037C27.6715 13.6195 28.3285 13.7872 29 13.7871H30V19.1992Z" stroke="black" stroke-width="2"/>
<path d="M10 1H30C34.9706 1 39 5.02944 39 10V30C39 34.9706 34.9706 39 30 39H10C5.02944 39 1 34.9706 1 30V10C1 5.02944 5.02944 1 10 1Z" stroke="#121212" stroke-opacity="0.2" stroke-width="2"/>
</g>
<defs>
<clipPath id="clip0_26_716">
<rect width="40" height="40" fill="white"/>
</clipPath>
</defs>
</svg>
