<svg width="40" height="40" viewBox="0 0 40 40" fill="none" xmlns="http://www.w3.org/2000/svg">
<g clip-path="url(#clip0_13_632)">
<circle cx="20" cy="20" r="19" fill="white" stroke="white" stroke-width="2" stroke-linecap="round"/>
<path d="M20.3077 7C22.1119 7 23.4339 7.78387 24.254 9.07422C25.0318 10.2981 25.3077 11.8927 25.3077 13.5C25.3077 15.1073 25.0318 16.7019 24.254 17.9258C24.0527 18.2425 23.8211 18.5284 23.5594 18.7797C23.0526 19.2665 22.6407 19.8883 22.6407 20.591V20.591C22.6407 21.521 23.3162 22.2997 24.2053 22.5723C26.8251 23.3754 29.1028 25.0462 29.9611 27.7207C30.2512 28.6249 29.9811 29.485 29.4386 30.0811C28.9122 30.6592 28.1301 31 27.3077 31H13.3077C12.4854 31 11.7033 30.6592 11.1769 30.0811C10.6343 29.485 10.3643 28.625 10.6544 27.7207C11.4739 25.1669 13.5876 23.5278 16.0576 22.6857C16.9601 22.3779 17.6407 21.5752 17.6407 20.6217V20.318C17.6407 19.6495 17.2816 19.0459 16.834 18.5494C16.6613 18.3579 16.5037 18.1496 16.3615 17.9258C15.5837 16.7019 15.3077 15.1073 15.3077 13.5C15.3077 11.8927 15.5837 10.2981 16.3615 9.07422C17.1816 7.78387 18.5037 7.00004 20.3077 7Z" fill="#121212"/>
<path d="M20.3077 7L20.3077 6L20.3077 6L20.3077 7ZM24.254 9.07422L25.098 8.53787L25.098 8.53779L24.254 9.07422ZM25.3077 13.5L26.3077 13.5L25.3077 13.5ZM24.254 17.9258L25.098 18.4622L25.098 18.4621L24.254 17.9258ZM29.9611 27.7207L30.9132 27.4152L30.9132 27.4152L29.9611 27.7207ZM29.4386 30.0811L30.178 30.7543L30.1781 30.7542L29.4386 30.0811ZM27.3077 31L27.3077 32L27.3078 32L27.3077 31ZM11.1769 30.0811L10.4374 30.7542L10.4375 30.7543L11.1769 30.0811ZM10.6544 27.7207L9.70224 27.4152L9.70224 27.4152L10.6544 27.7207ZM16.3615 17.9258L15.5174 18.4621L15.5175 18.4622L16.3615 17.9258ZM15.3077 13.5H14.3077H15.3077ZM16.3615 9.07422L15.5175 8.5378L15.5174 8.53788L16.3615 9.07422ZM16.834 18.5494L17.5767 17.8798L16.834 18.5494ZM23.5594 18.7797L24.2522 19.5009L23.5594 18.7797ZM20.3077 7L20.3077 8C21.7778 8 22.7777 8.61568 23.4101 9.61065L24.254 9.07422L25.098 8.53779C24.0901 6.95206 22.446 6 20.3077 6L20.3077 7ZM24.254 9.07422L23.41 9.61057C24.0425 10.6059 24.3077 11.9813 24.3077 13.5L25.3077 13.5L26.3077 13.5C26.3077 11.8042 26.021 9.99033 25.098 8.53787L24.254 9.07422ZM25.3077 13.5H24.3077C24.3077 15.0187 24.0425 16.3941 23.41 17.3894L24.254 17.9258L25.098 18.4621C26.021 17.0097 26.3077 15.1958 26.3077 13.5H25.3077ZM24.254 17.9258L23.4101 17.3894C23.2491 17.6426 23.0674 17.8657 22.8667 18.0585L23.5594 18.7797L24.2522 19.5009C24.5747 19.1911 24.8564 18.8423 25.098 18.4622L24.254 17.9258ZM24.2053 22.5723L23.9122 23.5283C26.3347 24.271 28.2826 25.7631 29.0089 28.0262L29.9611 27.7207L30.9132 27.4152C29.923 24.3293 27.3155 22.4799 24.4984 21.6162L24.2053 22.5723ZM29.9611 27.7207L29.0089 28.0262C29.1771 28.5505 29.0297 29.0447 28.6991 29.4079L29.4386 30.0811L30.1781 30.7542C30.9325 29.9253 31.3253 28.6993 30.9132 27.4152L29.9611 27.7207ZM29.4386 30.0811L28.6992 29.4078C28.37 29.7693 27.8603 30 27.3077 30L27.3077 31L27.3078 32C28.3999 32 29.4544 31.5491 30.178 30.7543L29.4386 30.0811ZM27.3077 31V30H13.3077V31V32H27.3077V31ZM13.3077 31V30C12.7552 30 12.2455 29.7694 11.9163 29.4078L11.1769 30.0811L10.4375 30.7543C11.1611 31.549 12.2155 32 13.3077 32V31ZM11.1769 30.0811L11.9164 29.4079C11.5857 29.0446 11.4383 28.5506 11.6066 28.0262L10.6544 27.7207L9.70224 27.4152C9.29017 28.6993 9.6829 29.9253 10.4374 30.7542L11.1769 30.0811ZM10.6544 27.7207L11.6066 28.0263C12.3004 25.8641 14.1066 24.4074 16.3803 23.6322L16.0576 22.6857L15.7348 21.7392C13.0685 22.6483 10.6474 24.4697 9.70224 27.4152L10.6544 27.7207ZM17.6407 20.6217H18.6407V20.318H17.6407H16.6407V20.6217H17.6407ZM16.834 18.5494L17.5767 17.8798C17.4429 17.7314 17.3189 17.5679 17.2054 17.3894L16.3615 17.9258L15.5175 18.4622C15.6886 18.7313 15.8798 18.9844 16.0913 19.219L16.834 18.5494ZM16.3615 17.9258L17.2055 17.3894C16.573 16.3941 16.3077 15.0187 16.3077 13.5H15.3077H14.3077C14.3077 15.1958 14.5945 17.0097 15.5174 18.4621L16.3615 17.9258ZM15.3077 13.5L16.3077 13.5C16.3077 11.9813 16.573 10.6059 17.2055 9.61056L16.3615 9.07422L15.5174 8.53788C14.5945 9.99032 14.3077 11.8042 14.3077 13.5L15.3077 13.5ZM16.3615 9.07422L17.2054 9.61063C17.8378 8.6157 18.8377 8.00003 20.3078 8L20.3077 7L20.3077 6C18.1696 6.00004 16.5254 6.95204 15.5175 8.5378L16.3615 9.07422ZM17.6407 20.318H18.6407C18.6407 19.2889 18.094 18.4535 17.5767 17.8798L16.834 18.5494L16.0913 19.219C16.4693 19.6382 16.6407 20.0101 16.6407 20.318H17.6407ZM16.0576 22.6857L16.3803 23.6322C17.612 23.2122 18.6407 22.0782 18.6407 20.6217H17.6407H16.6407C16.6407 21.0723 16.3082 21.5437 15.7348 21.7392L16.0576 22.6857ZM22.6407 20.591H21.6407C21.6407 22.0329 22.6767 23.1496 23.9122 23.5283L24.2053 22.5723L24.4984 21.6162C23.9556 21.4498 23.6407 21.0091 23.6407 20.591H22.6407ZM23.5594 18.7797L22.8667 18.0585C22.2772 18.6247 21.6407 19.491 21.6407 20.591H22.6407H23.6407C23.6407 20.2856 23.8281 19.9082 24.2522 19.5009L23.5594 18.7797Z" fill="#121212"/>
</g>
<defs>
<clipPath id="clip0_13_632">
<rect width="40" height="40" fill="white"/>
</clipPath>
</defs>
</svg>
