<svg width="40" height="40" viewBox="0 0 40 40" fill="none" xmlns="http://www.w3.org/2000/svg">
<g clip-path="url(#clip0_26_729)">
<path d="M15.4316 10.0001H24.5684C26.2085 10.0001 27.5726 10.5427 28.5059 11.5118L28.5117 11.5186L28.5186 11.5255C29.4599 12.4668 30 13.7975 30 15.4317V24.5684C30 26.1511 29.5206 27.4472 28.6641 28.3702L28.4883 28.5499C27.5449 29.4568 26.2075 30 24.5244 30.0001H15.4756C13.8748 30 12.5402 29.497 11.5566 28.5499H11.5557C10.5409 27.5708 10 26.206 10 24.5245V15.4317C10 13.7295 10.5629 12.3884 11.4756 11.4756C12.3883 10.5629 13.7295 10.0001 15.4316 10.0001Z" stroke="black" stroke-width="2"/>
<path d="M20 15.8547C22.2469 15.8547 24.1005 17.7085 24.1006 19.9553C24.1006 22.2023 22.2469 24.0559 20 24.0559C17.7532 24.0558 15.8994 22.2022 15.8994 19.9553C15.8995 17.7085 17.7532 15.8548 20 15.8547Z" stroke="black" stroke-width="2"/>
<path d="M25.8991 15.4316C26.6095 15.4316 27.1854 14.8557 27.1854 14.1453C27.1854 13.4349 26.6095 12.859 25.8991 12.859C25.1887 12.859 24.6128 13.4349 24.6128 14.1453C24.6128 14.8557 25.1887 15.4316 25.8991 15.4316Z" fill="black"/>
<path d="M10 1H30C34.9706 1 39 5.02944 39 10V30C39 34.9706 34.9706 39 30 39H10C5.02944 39 1 34.9706 1 30V10C1 5.02944 5.02944 1 10 1Z" stroke="#121212" stroke-opacity="0.2" stroke-width="2"/>
</g>
<defs>
<clipPath id="clip0_26_729">
<rect width="40" height="40" fill="white"/>
</clipPath>
</defs>
</svg>
