<svg width="40" height="40" viewBox="0 0 40 40" fill="none" xmlns="http://www.w3.org/2000/svg">
<path d="M32.6 8C32.9713 8 33.3274 8.14048 33.59 8.39052C33.8525 8.64057 34 8.97971 34 9.33333V18.6667C34 19.0203 33.8525 19.3594 33.59 19.6095C33.3274 19.8595 32.9713 20 32.6 20H31.7989C30.6942 20 29.7987 20.8956 29.7989 22.0003L29.8 30.6667C29.8 31.0203 29.6525 31.3594 29.39 31.6095C29.1274 31.8595 28.7713 32 28.4 32H11.6C11.2287 32 10.8726 31.8595 10.6101 31.6095C10.3475 31.3594 10.2 31.0203 10.2 30.6667L10.1989 21.9994C10.1987 20.8945 9.30275 19.9991 8.19791 19.9996L7.4 20C7.0287 20 6.6726 19.8595 6.41005 19.6095C6.1475 19.3594 6 19.0203 6 18.6667V9.33333C6 8.97971 6.1475 8.64057 6.41005 8.39052C6.6726 8.14048 7.0287 8 7.4 8H13.8C14.9046 8 15.7625 8.95144 16.3101 9.91071C16.501 10.245 16.7426 10.5545 17.0302 10.8284C17.8178 11.5786 18.8861 12 20 12C21.1139 12 22.1822 11.5786 22.9698 10.8284C23.2574 10.5545 23.499 10.245 23.6899 9.91071C24.2375 8.95144 25.0954 8 26.2 8H32.6Z" fill="white" stroke="white" stroke-width="2" stroke-linecap="round"/>
</svg>
