<svg width="40" height="40" viewBox="0 0 40 40" fill="none" xmlns="http://www.w3.org/2000/svg">
<path d="M11.006 24.2405C11.363 29.9198 27.637 29.9198 27.994 24.2405C28.0019 24.1157 27.9883 23.9876 27.965 23.8647L26.3085 15.1275C26.1296 14.1834 25.3045 13.5 24.3435 13.5L14.6565 13.5C13.6955 13.5 12.8704 14.1834 12.6915 15.1275L11.035 23.8647C11.0117 23.9876 10.9981 24.1157 11.006 24.2405Z" stroke="black" stroke-width="2" stroke-linecap="round"/>
<path d="M16 12L16 19C16 20.1046 16.8954 21 18 21L21 21C22.1046 21 23 20.1046 23 19L23 12" stroke="black" stroke-width="2" stroke-linecap="round"/>
</svg>
