<svg width="40" height="40" viewBox="0 0 40 40" fill="none" xmlns="http://www.w3.org/2000/svg">
<path d="M20.3077 7C22.1119 7 23.4339 7.78387 24.254 9.07422C25.0318 10.2981 25.3077 11.8927 25.3077 13.5C25.3077 15.1073 25.0318 16.7019 24.254 17.9258C24.0527 18.2425 23.8211 18.5284 23.5594 18.7797C23.0526 19.2665 22.6407 19.8883 22.6407 20.591C22.6407 21.521 23.3162 22.2997 24.2053 22.5723C26.8251 23.3755 29.1028 25.0462 29.9611 27.7207C30.2512 28.6249 29.9811 29.485 29.4386 30.0811C28.9122 30.6592 28.1301 31 27.3077 31H13.3077C12.4854 31 11.7033 30.6592 11.1769 30.0811C10.6343 29.485 10.3643 28.625 10.6544 27.7207C11.4739 25.1669 13.5876 23.5278 16.0576 22.6857C16.9601 22.3779 17.6407 21.5752 17.6407 20.6217V20.318C17.6407 19.6495 17.2816 19.0459 16.834 18.5494C16.6613 18.3579 16.5037 18.1496 16.3615 17.9258C15.5837 16.7019 15.3077 15.1073 15.3077 13.5C15.3077 11.8927 15.5837 10.2981 16.3615 9.07422C17.1816 7.78387 18.5037 7.00004 20.3077 7Z" fill="white"/>
</svg>
