<svg width="40" height="40" viewBox="0 0 40 40" fill="none" xmlns="http://www.w3.org/2000/svg">
<path d="M30.1 11C30.3387 11 30.5676 11.0937 30.7364 11.2603C30.9052 11.427 31 11.6531 31 11.8889V18.1111C31 18.3469 30.9052 18.573 30.7364 18.7397C30.5676 18.9063 30.3387 19 30.1 19H26.2991L26.3 30.1111C26.3 30.3469 26.2052 30.573 26.0364 30.7397C25.8676 30.9063 25.6387 31 25.4 31H14.6C14.3613 31 14.1324 30.9063 13.9636 30.7397C13.7948 30.573 13.7 30.3469 13.7 30.1111L13.6991 18.9991L9.9 19C9.66131 19 9.43239 18.9063 9.2636 18.7397C9.09482 18.573 9 18.3469 9 18.1111V11.8889C9 11.6531 9.09482 11.427 9.2636 11.2603C9.43239 11.0937 9.66131 11 9.9 11H17.3C17.3 11.7072 17.5845 12.3855 18.0908 12.8856C18.5972 13.3857 19.2839 13.6667 20 13.6667C20.7161 13.6667 21.4028 13.3857 21.9092 12.8856C22.4155 12.3855 22.7 11.7072 22.7 11H30.1Z" fill="white"/>
</svg>
