<svg width="40" height="40" viewBox="0 0 40 40" fill="none" xmlns="http://www.w3.org/2000/svg">
<g clip-path="url(#clip0_26_700)">
<path d="M30.5404 14.6546C30.2874 13.6096 29.542 12.7868 28.5954 12.5075C26.8796 12 20 12 20 12C20 12 13.1204 12 11.4046 12.5075C10.4581 12.7868 9.7126 13.6096 9.45964 14.6546C9 16.5485 9 20.5001 9 20.5001C9 20.5001 9 24.4517 9.45964 26.3454C9.7126 27.3904 10.4581 28.2134 11.4046 28.4927C13.1204 29 20 29 20 29C20 29 26.8796 29 28.5954 28.4927C29.542 28.2134 30.2874 27.3904 30.5404 26.3454C31 24.4517 31 20.5001 31 20.5001C31 20.5001 31 16.5485 30.5404 14.6546ZM17.7999 24.143V16.8572L23.5156 20.5001L17.7999 24.143Z" stroke="black" stroke-width="2"/>
<path d="M10 1H30C34.9706 1 39 5.02944 39 10V30C39 34.9706 34.9706 39 30 39H10C5.02944 39 1 34.9706 1 30V10C1 5.02944 5.02944 1 10 1Z" stroke="#121212" stroke-opacity="0.2" stroke-width="2"/>
</g>
<defs>
<clipPath id="clip0_26_700">
<rect width="40" height="40" fill="white"/>
</clipPath>
</defs>
</svg>
