<svg width="120" height="120" viewBox="0 0 120 120" fill="none" xmlns="http://www.w3.org/2000/svg">
<g clip-path="url(#clip0_80_590)">
<rect width="120" height="120" fill="white"/>
<path d="M62.6065 4.48464L24.2394 39.2036L66.0687 8.7446C67.4355 7.74933 67.5882 5.76772 66.39 4.57482C65.3536 3.54304 63.6908 3.50341 62.6065 4.48464Z" fill="#121212" stroke="#121212"/>
<path d="M62.7946 36.3031L29.9771 43.19L63.3395 39.8185C64.4296 39.7084 65.1628 38.6494 64.8822 37.5903C64.6395 36.6742 63.722 36.1085 62.7946 36.3031Z" fill="#121212" stroke="#121212"/>
<path d="M53.5353 113.06L24 97.1832L51.687 116.1C52.5917 116.718 53.8347 116.381 54.3025 115.39C54.7072 114.533 54.37 113.509 53.5353 113.06Z" fill="#121212" stroke="#121212"/>
<path d="M93.0832 57.4389C91.5857 57.666 90.1538 56.7412 89.7448 55.2829L84.9164 38.0668C84.4295 36.331 85.5727 34.5609 87.355 34.2906L92.5391 33.5043C94.3109 33.2356 95.9216 34.5701 95.987 36.361L96.6383 54.2106C96.6939 55.7344 95.5977 57.0575 94.0902 57.2861L93.0832 57.4389ZM93.0418 70.8512C91.4037 71.0997 89.8743 69.9731 89.6258 68.335L89.0521 64.5525C88.8037 62.9144 89.9302 61.3851 91.5683 61.1366L96.4459 60.3968C98.084 60.1484 99.6134 61.2749 99.8618 62.913L100.436 66.6955C100.684 68.3336 99.5574 69.863 97.9193 70.1114L93.0418 70.8512Z" fill="#121212" stroke="#121212"/>
<path d="M40.3575 89.9508C38.8236 89.6603 38.2324 87.7774 39.325 86.6622L62.6379 62.8647C63.0861 62.4071 63.7334 62.2039 64.3627 62.3231V62.3231C65.8637 62.6075 66.4441 64.4484 65.3776 65.5423L42.121 89.3948C41.6636 89.864 41.0014 90.0728 40.3575 89.9508V89.9508ZM41.9113 75.7992C40.3574 75.5048 39.035 74.8384 37.944 73.8C36.8529 72.7616 36.0686 71.5332 35.591 70.1149C35.1161 68.6825 35.0187 67.2267 35.2989 65.7477C35.5844 64.2404 36.2199 62.8943 37.2053 61.7093C38.1934 60.5103 39.3877 59.613 40.7882 59.0173C42.1888 58.4217 43.6519 58.2684 45.1775 58.5575C46.6891 58.8438 47.9806 59.5189 49.0522 60.5828C50.1237 61.6467 50.893 62.916 51.3599 64.3907C51.8436 65.854 51.9427 67.3393 51.6572 68.8465C51.377 70.3256 50.754 71.6448 49.788 72.8043C48.8389 73.9524 47.6737 74.8115 46.2926 75.3816C44.9115 75.9517 43.4511 76.0909 41.9113 75.7992ZM42.6295 71.7765C43.5053 71.9425 44.1623 71.6802 44.6003 70.9898C45.0411 70.2854 45.4016 69.1936 45.6818 67.7145C45.978 66.151 46.0397 64.9369 45.8668 64.0724C45.7108 63.1966 45.2161 62.6797 44.3827 62.5218C43.5633 62.3666 42.9138 62.6667 42.4341 63.4222C41.9545 64.1776 41.5679 65.3301 41.2743 66.8796C40.9941 68.3587 40.9374 69.508 41.1041 70.3275C41.2734 71.133 41.7819 71.616 42.6295 71.7765ZM60.1568 93.9642C58.6029 93.6698 57.2804 93.0034 56.1894 91.965C55.1011 90.9125 54.3194 89.67 53.8445 88.2376C53.3695 86.8052 53.2722 85.3494 53.5523 83.8704C53.8352 82.3772 54.4693 81.0381 55.4547 79.8532C56.4428 78.6541 57.6371 77.7568 59.0377 77.1612C60.4409 76.5515 61.9054 76.3912 63.431 76.6802C64.9567 76.9692 66.2539 77.6527 67.3228 78.7307C68.4085 79.7973 69.1848 81.0679 69.6517 82.5426C70.1355 84.0059 70.2359 85.4841 69.9531 86.9772C69.6729 88.4563 69.0498 89.7756 68.0839 90.9351C67.132 92.0972 65.9572 92.969 64.5593 93.5506C63.1782 94.1207 61.7107 94.2585 60.1568 93.9642ZM60.8829 89.8993C61.7588 90.0652 62.4157 89.8029 62.8538 89.1126C63.2946 88.4081 63.6524 87.3304 63.9272 85.8795C64.2234 84.3159 64.2851 83.1019 64.1123 82.2374C63.9563 81.3615 63.4616 80.8447 62.6281 80.6868C61.8088 80.5316 61.1663 80.833 60.7008 81.5912C60.2352 82.3493 59.8557 83.5031 59.5622 85.0526C59.2873 86.5035 59.2262 87.6374 59.3787 88.4543C59.5339 89.257 60.0354 89.7387 60.8829 89.8993Z" fill="#121212" stroke="#121212"/>
</g>
<defs>
<clipPath id="clip0_80_590">
<rect width="120" height="120" fill="white"/>
</clipPath>
</defs>
</svg>
