<svg width="120" height="120" viewBox="0 0 120 120" fill="none" xmlns="http://www.w3.org/2000/svg">
<g clip-path="url(#clip0_80_589)">
<rect width="120" height="120" fill="white"/>
<path d="M68.1664 89.2504C64.6844 89.7931 61.4813 89.7234 58.5572 89.0411C55.6523 88.3558 53.0845 87.1788 50.8539 85.5099C48.6455 83.8575 46.8407 81.8228 45.4392 79.4057C44.0378 76.9886 43.1077 74.3084 42.6489 71.365C42.1688 68.2852 42.2451 65.2983 42.8778 62.4044C43.5297 59.5075 44.7016 56.8491 46.3933 54.429C48.1013 51.9865 50.3054 49.9458 53.0057 48.3069C55.7222 46.6456 58.9079 45.53 62.5631 44.9603C65.1793 44.5525 67.7734 44.5075 70.3451 44.8254C72.9169 45.1433 75.2898 45.8916 77.4637 47.0701C79.6568 48.2457 81.5113 49.9033 83.0271 52.043C84.5429 54.1827 85.553 56.8704 86.0574 60.1062C86.5071 62.9911 86.4323 65.6083 85.833 67.9579C85.253 70.3045 84.2137 72.2335 82.7153 73.7449C81.2168 75.2563 79.3422 76.1875 77.0915 76.5383C75.3216 76.8142 73.9664 76.716 73.0257 76.2436C72.0821 75.7518 71.4052 75.3282 70.9951 74.9729C70.7885 74.7854 70.6483 74.7075 70.5744 74.7389C70.5005 74.7704 70.3937 74.9069 70.254 75.1483C69.5726 76.2129 68.6442 77.1463 67.4687 77.9484C66.2932 78.7506 64.9648 79.2672 63.4836 79.4981C61.7522 79.7679 60.1398 79.6 58.6463 78.9942C57.169 78.3659 55.9175 77.3531 54.8918 75.9556C53.8853 74.5551 53.2322 72.83 52.9324 70.7803C52.5799 68.5192 52.7185 66.3113 53.3482 64.1566C53.9778 62.0019 55.0708 60.1644 56.6269 58.644C58.2023 57.1206 60.2019 56.17 62.6258 55.7921C64.2225 55.5433 65.4629 55.5995 66.3468 55.9609C67.25 56.3192 68.0772 56.7593 68.8285 57.2811C68.9622 57.3801 69.074 57.4026 69.1642 57.3486C69.2543 57.2946 69.2937 57.1687 69.2826 56.9707V56.9707C69.3029 56.5491 69.6168 56.1999 70.0339 56.1349L71.8253 55.8556C73.6553 55.5704 75.3041 56.9952 75.2872 58.8473L75.2048 67.8476C75.1856 68.9887 75.3522 69.7414 75.7045 70.1058C76.0731 70.4476 76.4979 70.5811 76.9788 70.5061C77.6329 70.4042 78.2429 70.0196 78.8088 69.3523C79.391 68.6626 79.8076 67.6692 80.0586 66.3722C80.3259 65.0527 80.3045 63.3989 79.9946 61.4106C79.6057 58.9156 78.8862 56.8914 77.8361 55.338C76.7861 53.7845 75.5022 52.627 73.9844 51.8652C72.4828 51.081 70.8248 50.6207 69.0104 50.4842C67.2122 50.3253 65.3609 50.3942 63.4564 50.6911C60.3399 51.1769 57.7646 52.0375 55.7306 53.273C53.6965 54.5086 52.1277 56.011 51.0242 57.7803C49.9206 59.5496 49.2094 61.4973 48.8906 63.6235C48.591 65.7467 48.6174 67.9389 48.9699 70.2C49.3922 72.9095 50.1573 75.2261 51.2651 77.1498C52.389 79.0511 53.798 80.5686 55.492 81.7021C57.2022 82.8132 59.1381 83.5397 61.2998 83.8816C63.4838 84.24 65.8358 84.2228 68.3559 83.8299C70.1065 83.5571 71.5554 83.1815 72.7026 82.7032C73.8689 82.2219 74.8743 81.6558 75.7187 81.0051C75.8814 80.8797 76.0438 80.7521 76.2059 80.6224C77.3685 79.6914 79.0583 79.7117 80.1111 80.7653V80.7653C81.1246 81.7795 81.194 83.4104 80.0671 84.2969C79.1404 85.0259 78.015 85.755 76.691 86.484C74.336 87.8095 71.4944 88.7316 68.1664 89.2504ZM64.5099 72.8091C65.4718 72.6592 66.2823 72.2334 66.9414 71.5316C67.6005 70.8299 68.0703 69.988 68.3507 69.0059C68.6311 68.0238 68.6953 67.0454 68.5434 66.0708C68.4249 65.3105 68.1763 64.6006 67.7976 63.9408C67.4189 63.2811 66.9253 62.769 66.3167 62.4046C65.7052 62.0208 64.9954 61.8918 64.1874 62.0178C63.341 62.1497 62.5852 62.5471 61.92 63.2098C61.2518 63.853 60.7582 64.6687 60.4393 65.6568C60.1174 66.6255 60.0445 67.6751 60.2208 68.8056C60.397 69.9362 60.8385 70.9356 61.5453 71.8037C62.2713 72.6689 63.2595 73.004 64.5099 72.8091Z" fill="#121212" stroke="#121212"/>
<path d="M37.3547 16.3266C38.9036 16.6872 39.8571 18.2302 39.5092 19.7626L39.4708 19.9102L37.5085 26.8534L40.0214 27.1885C41.598 27.3987 42.7055 28.8472 42.4953 30.4238C42.2851 32.0004 40.8366 33.1079 39.2601 32.8977L35.9263 32.4531L34.6572 36.9459L37.053 37.2654C38.6293 37.4759 39.7372 38.9242 39.5269 40.5007C39.3166 42.077 37.868 43.1846 36.2917 42.9746L33.075 42.5457L30.7901 50.63C30.3584 52.1575 28.7811 53.0573 27.2467 52.651C25.6739 52.2344 24.7484 50.6082 25.1939 49.0433L27.2642 41.7708L22.1444 41.088L19.8537 49.1933C19.4254 50.7091 17.8597 51.6004 16.3376 51.1953C14.7802 50.7806 13.8648 49.17 14.306 47.62L16.3839 40.3199L13.7587 39.9698C12.1822 39.7595 11.0746 38.311 11.2848 36.7345C11.495 35.1579 12.9435 34.0503 14.5201 34.2605L17.9777 34.7216L19.2565 30.2302L16.7281 29.893C15.1515 29.6827 14.0439 28.2343 14.2541 26.6577C14.4644 25.0811 15.9128 23.9735 17.4894 24.1838L20.8503 24.6319L23.0609 16.8687C23.4778 15.4048 24.9709 14.5265 26.4531 14.8729C28.0368 15.243 28.9909 16.8601 28.5488 18.4252L26.5789 25.3959L31.7315 26.083L33.9354 18.3406L34.0265 18.0709C34.5434 16.7588 35.9536 16.0007 37.3547 16.3266ZM23.7266 35.4883L28.858 36.1726L30.1367 31.6811L24.9967 30.9956L23.7266 35.4883Z" fill="#121212" stroke="#121212"/>
<path d="M56.3747 5.58276L100.704 29.1329L54.1293 10.4115C52.6074 9.79981 51.9935 7.97213 52.8373 6.56566C53.5672 5.34916 55.1219 4.91719 56.3747 5.58276Z" fill="#121212" stroke="#121212"/>
<path d="M57.7891 112.082L103.828 92.0799L60.1672 116.847C58.7405 117.656 56.9284 116.998 56.354 115.462C55.8572 114.133 56.4879 112.648 57.7891 112.082Z" fill="#121212" stroke="#121212"/>
<path d="M79.7253 2.49699L104.304 23.8064L77.6061 5.2207C76.7337 4.6134 76.6113 3.36995 77.3485 2.60419C77.9861 1.94185 79.0307 1.89474 79.7253 2.49699Z" fill="#121212" stroke="#121212"/>
</g>
<defs>
<clipPath id="clip0_80_589">
<rect width="120" height="120" fill="white"/>
</clipPath>
</defs>
</svg>
